<?xml version="1.0" encoding="utf-8"?>
<!-- Generator: Adobe Illustrator 21.1.0, SVG Export Plug-In . SVG Version: 6.00 Build 0)  -->
<svg version="1.1" id="レイヤー_1" xmlns="http://www.w3.org/2000/svg" xmlns:xlink="http://www.w3.org/1999/xlink" x="0px"
	 y="0px" viewBox="0 0 59 14.4" style="enable-background:new 0 0 59 14.4;" xml:space="preserve">
<style type="text/css">
	.st0{fill:#8DA436;}
	.st1{fill:#FFFFFF;}
	.st2{fill:#FFFFFF;stroke:#8DA436;stroke-width:0.6;stroke-miterlimit:10;}
	.st3{fill:none;stroke:#8DA436;stroke-width:0.75;stroke-linecap:round;stroke-miterlimit:10;}
</style>
<path class="st0" d="M52,14c-0.5,0-0.9,0-1.4-0.1c-0.4-0.1-0.9-0.2-1.3-0.4c-0.4-0.2-0.8-0.4-1.2-0.6c-0.4-0.3-0.7-0.6-1.1-0.9
	c-0.3-0.3-0.6-0.7-0.9-1.1c-0.3-0.4-0.5-0.8-0.6-1.2c-0.2-0.4-0.3-0.9-0.4-1.3c-0.2-0.9-0.2-1.8,0-2.8c0.1-0.4,0.2-0.9,0.4-1.3
	c0.7-1.7,2.1-3.1,3.8-3.8c0.4-0.2,0.9-0.3,1.3-0.4c0.9-0.2,1.8-0.2,2.8,0c0.4,0.1,0.9,0.2,1.3,0.4C56,1.1,57.1,2,57.9,3.1
	c0.3,0.4,0.5,0.8,0.6,1.2c0.2,0.4,0.3,0.9,0.4,1.3c0.2,0.9,0.2,1.8,0,2.8c-0.2,0.9-0.5,1.7-1,2.5c-0.3,0.4-0.6,0.7-0.9,1.1
	c-0.3,0.3-0.7,0.6-1.1,0.9c-0.4,0.3-0.8,0.5-1.2,0.6c-0.4,0.2-0.9,0.3-1.3,0.4C53,13.9,52.5,14,52,14z"/>
<path class="st1" d="M52,0.7c-0.8,0-1.7,0.2-2.4,0.5c-1.5,0.6-2.7,1.8-3.3,3.3c-0.3,0.8-0.5,1.6-0.5,2.4c0,0.8,0.2,1.7,0.5,2.4
	c0.3,0.7,0.8,1.4,1.3,2c0.6,0.6,1.3,1,2,1.3c1.6,0.7,3.3,0.7,4.9,0c1.5-0.6,2.7-1.8,3.3-3.3c0.3-0.8,0.5-1.6,0.5-2.5
	c0-0.8-0.2-1.7-0.5-2.4c-0.3-0.7-0.8-1.4-1.3-2c-0.6-0.6-1.3-1-2-1.4C53.7,0.9,52.8,0.7,52,0.7z"/>
<path class="st2" d="M52,11.7c0.2,0.8,0.6,1.5,1.1,2.1c0.7,0.6,2.5-0.2,2.5-1.1c-0.2-0.8-0.5-1.6-0.9-2.3C53.9,11.2,53,11.6,52,11.7
	z"/>
<path class="st0" d="M55,9.7h0.1l0.1,0.1c0.1,0.1,0.1,0.1,0.1,0.2c0,0.1,0,0.2-0.1,0.3c-0.2,0.2-0.4,0.5-0.6,0.7
	c-0.2,0.2-0.5,0.4-0.8,0.5c-0.3,0.1-0.6,0.3-0.9,0.3c-0.6,0.1-1.3,0.1-1.9,0c-0.3-0.1-0.6-0.2-0.9-0.3c-0.3-0.1-0.6-0.3-0.8-0.5
	c-0.2-0.2-0.4-0.4-0.6-0.7c-0.1-0.1-0.1-0.2-0.1-0.3c0-0.1,0.1-0.2,0.1-0.2c0.1-0.1,0.2-0.1,0.3-0.1c0.1,0,0.2,0.1,0.2,0.1
	c0.3,0.4,0.7,0.8,1.2,1c0.2,0.1,0.5,0.2,0.7,0.3c0.5,0.1,1,0.1,1.5,0c0.2-0.1,0.5-0.1,0.7-0.3c0.2-0.1,0.4-0.3,0.6-0.4
	c0.2-0.2,0.4-0.4,0.5-0.6c0,0,0.1-0.1,0.1-0.1C54.9,9.8,54.9,9.7,55,9.7z"/>
<path class="st3" d="M48.6,8.2c1.5-0.9,2.3-1.5,2.3-1.8c0-0.3-0.9-0.8-2.7-1.6"/>
<path class="st3" d="M55.4,8.2c-1.5-0.9-2.3-1.5-2.3-1.8c0-0.3,0.9-0.8,2.7-1.6"/>
<path class="st0" d="M4.6,4.1C4.8,4.1,5,4,5.2,4c0.3,0,0.5,0.2,0.5,0.5c0,0,0,0,0,0.1c0,0.3,0,0.6-2.4,0.8c-0.4,2-1,4-1.6,6
	c0,0.3-0.3,0.4-0.5,0.4c-0.3,0-0.5-0.2-0.5-0.4c0,0,0,0,0,0c0-0.1,0-0.3,0.1-0.4c0.7-1.8,1.2-3.6,1.6-5.5C1.8,5.5,1.1,5.5,0.7,5.5
	S0,5.3,0,4.9s0.2-0.5,0.5-0.5c0.6,0,1.3,0,1.9-0.1c0-0.2,0.2-1.2,0.2-1.5c0-0.2,0.2-0.4,0.4-0.4c0,0,0,0,0,0c0.3,0,0.5,0.2,0.5,0.4
	c0,0.2,0,0.3,0,0.5c0,0.2-0.1,0.5-0.2,0.9C3.8,4.3,4.2,4.2,4.6,4.1z M5.2,9.2c0,0.1,0,0.2-0.1,0.3C5,9.7,5,9.8,5,10
	c0,0.8,1.4,0.8,1.7,0.8s0.6,0,0.9,0s0.6-0.1,0.8-0.1c0.3,0,0.5,0.2,0.5,0.4c0,0,0,0.1,0,0.1c0,0.4-0.3,0.6-1.9,0.6
	c-1.4,0-2.9-0.3-2.9-1.6c0-0.1,0-1.2,0.6-1.2C4.9,8.8,5.2,9,5.2,9.2z M8,6.8c-0.2,0-0.6-0.1-1-0.1c-0.5,0-1,0-1.5,0.1
	C5.3,6.9,5.2,6.9,5,6.9c-0.2,0-0.4-0.2-0.4-0.5c0,0,0,0,0,0c0-0.3,0.1-0.5,1.6-0.6c0.3,0,0.6-0.1,0.9-0.1c1.2,0,1.4,0.2,1.4,0.6
	C8.5,6.6,8.3,6.8,8,6.8C8,6.8,8,6.8,8,6.8z M8.2,3.9C8.3,4,8.4,4.1,8.4,4.3c0,0.2-0.2,0.4-0.4,0.4c-0.1,0-0.2-0.1-0.4-0.3
	S7.3,3.8,7.1,3.6C7,3.5,7,3.4,7,3.3c0-0.2,0.2-0.4,0.4-0.4c0,0,0,0,0,0C7.5,2.9,7.6,2.9,8.2,3.9z M8.8,2.6c0.3,0.3,0.5,0.7,0.7,1.1
	C9.5,3.9,9.3,4,9.1,4C9,4,8.9,4,8.8,3.8S8.4,3.2,8.2,3C8.1,2.9,8.1,2.8,8.1,2.6c0-0.2,0.2-0.4,0.4-0.4c0,0,0,0,0,0
	C8.6,2.3,8.8,2.4,8.8,2.6L8.8,2.6z"/>
<path class="st0" d="M20.3,7.7c0,1.9-1.3,3.6-3.2,4c-0.3,0-0.5-0.2-0.5-0.5c0,0,0,0,0-0.1c0-0.2,0.1-0.3,0.3-0.4
	c1.4-0.4,2.4-1.7,2.4-3.1c0.1-1.3-0.9-2.5-2.3-2.5c-0.1,0-0.1,0-0.2,0c-0.3,1.3-0.8,2.6-1.6,3.8c0.2,0.3,0.3,0.5,0.5,0.8
	c0.1,0.1,0.2,0.3,0.2,0.4c0,0.3-0.2,0.5-0.5,0.5c-0.1,0-0.3,0-0.8-0.8c-0.5,0.6-1.1,1-1.9,1.1c-0.9,0-1.4-1-1.4-2.1
	c0-1.2,0.6-2.4,1.5-3.2c-0.2-0.7-0.3-1.3-0.4-2c0-0.3,0.2-0.5,0.5-0.5s0.5,0.2,0.5,0.5c0.1,0.6,0.1,1,0.2,1.4
	c0.7-0.4,1.5-0.7,2.4-0.7c0-0.3,0.1-0.7,0.1-0.9c0-0.2,0-0.4,0.1-0.6c0.1-0.2,0.2-0.3,0.4-0.3c0.3,0,0.5,0.2,0.5,0.4
	c0,0,0,0.1,0,0.1C17.2,3.1,17,4,17,4.2C18.8,4.3,20.3,5.8,20.3,7.7C20.3,7.7,20.3,7.7,20.3,7.7z M12.1,8.7c0,0.3,0.1,1.2,0.6,1.2
	s1.1-0.6,1.4-1c-0.4-0.8-0.7-1.6-1-2.4C12.5,7,12.2,7.8,12.1,8.7L12.1,8.7z M13.9,5.8c0.2,0.8,0.5,1.5,0.8,2.2
	c0.5-0.9,0.9-1.9,1.2-2.9C15.1,5.2,14.5,5.4,13.9,5.8L13.9,5.8z"/>
<path class="st0" d="M22.7,3.4c-0.1-0.3,0.1-0.6,0.4-0.6s0.6,0.1,0.6,0.4c0,0.1,0,0.2,0,0.3v6.4c0,0.1,0,0.1,0.1,0.1
	c1.1-0.3,2-0.7,2.9-1.4c0.9-0.6,1.8-1.4,2.5-2.2c0.3-0.3,0.4-0.5,0.7-0.5c0.3,0,0.6,0.2,0.6,0.5c0,0.3-0.3,0.6-0.6,0.9
	c-2.5,2.6-5.6,3.9-6.6,3.9c-0.3,0-0.6-0.2-0.6-0.6c0,0,0-0.1,0-0.1L22.7,3.4z"/>
<path class="st0" d="M35.8,7c-0.3,1.1-0.9,2.2-1.6,3.1c-0.4,0.5-0.5,0.7-0.8,0.7c-0.3,0-0.6-0.2-0.6-0.6c0-0.2,0.1-0.3,0.4-0.6
	c0.7-0.8,1.2-1.7,1.5-2.7c0-0.2,0.3-0.4,0.5-0.4C35.5,6.5,35.8,6.7,35.8,7z M38.2,4.6h3.4c0.2,0,0.5,0.1,0.5,0.4c0,0,0,0.1,0,0.1
	c0,0.2-0.1,0.5-0.4,0.5c0,0-0.1,0-0.1,0h-3.4V11c0,0.6-0.3,1.1-1,1.1c-0.3,0-1.9-0.1-1.9-0.8c0-0.3,0.2-0.5,0.5-0.6
	c0.2,0,0.4,0.1,0.6,0.2c0.2,0.1,0.4,0.1,0.7,0.1c0.1,0,0.2-0.1,0.2-0.3V5.7h-3.5c-0.2,0-0.5-0.1-0.5-0.4c0,0,0-0.1,0-0.1
	c0-0.2,0.1-0.5,0.4-0.5c0,0,0.1,0,0.1,0h3.6V3.2c0-0.3,0.2-0.5,0.5-0.5s0.5,0.2,0.5,0.5L38.2,4.6z M40.6,7.1c0.7,1,1.3,2,1.7,3.1
	c0,0.3-0.2,0.5-0.5,0.6c-0.3,0-0.5-0.1-0.6-0.4c-0.4-0.9-0.9-1.7-1.4-2.5c-0.2-0.3-0.4-0.5-0.4-0.7c0-0.3,0.3-0.5,0.6-0.5
	C40.2,6.5,40.3,6.7,40.6,7.1L40.6,7.1z M42.6,3.3c0,0.7-0.6,1.3-1.3,1.3C40.6,4.6,40,4,40,3.3C40,2.6,40.6,2,41.3,2c0,0,0,0,0.1,0
	C42,2,42.6,2.5,42.6,3.3C42.6,3.3,42.6,3.3,42.6,3.3L42.6,3.3z M40.6,3.3c0,0.4,0.3,0.7,0.7,0.7C41.7,4,42,3.7,42,3.3l0,0
	c0-0.4-0.3-0.7-0.7-0.7C41,2.6,40.7,2.9,40.6,3.3C40.7,3.3,40.7,3.3,40.6,3.3L40.6,3.3z"/>
</svg>
