<?xml version="1.0" encoding="UTF-8"?>
<svg width="75px" height="19px" viewBox="0 0 75 19" version="1.1" xmlns="http://www.w3.org/2000/svg" xmlns:xlink="http://www.w3.org/1999/xlink">
    <!-- Generator: Sketch 46.2 (44496) - http://www.bohemiancoding.com/sketch -->
    <title>アセット 2</title>
    <desc>Created with Sketch.</desc>
    <defs></defs>
    <g id="Page-1" stroke="none" stroke-width="1" fill="none" fill-rule="evenodd">
        <g id="iPhone-7" transform="translate(-150.000000, -7.000000)">
            <g id="アセット-2" transform="translate(150.000000, 7.000000)">
                <path d="M65.8666667,18 C65.2800166,18.0024172 64.6945448,17.9472641 64.1186667,17.8353333 C63.5550721,17.7243934 63.0035917,17.5589493 62.472,17.3413333 C61.9392967,17.1230507 61.4300382,16.8514462 60.952,16.5306667 C60.4653012,16.2037308 60.0114052,15.8304331 59.5966667,15.416 C59.1795608,15.0083049 58.805995,14.558328 58.482,14.0733333 C58.1647479,13.5931869 57.8933318,13.0842817 57.6713333,12.5533333 C57.4470233,12.0230528 57.2772599,11.4713216 57.1646667,10.9066667 C56.9402321,9.75640096 56.9402321,8.57359904 57.1646667,7.42333333 C57.2780983,6.85889071 57.4478361,6.30724297 57.6713333,5.77666667 C58.5688446,3.58372814 60.3067549,1.84125634 62.4973333,0.938 C63.0279096,0.714502769 63.5795574,0.544765002 64.144,0.431333333 C65.2942657,0.206898764 66.4770676,0.206898764 67.6273333,0.431333333 C68.1961086,0.543859902 68.7520475,0.713612257 69.2866667,0.938 C70.9100306,1.615911 72.2977715,2.75694241 73.2766667,4.21866667 C73.5964261,4.69731631 73.8679747,5.2064699 74.0873333,5.73866667 C74.3080924,6.27023416 74.4777466,6.82161023 74.594,7.38533333 C74.8243189,8.53502288 74.8243189,9.71897712 74.594,10.8686667 C74.3806812,11.9962462 73.9505022,13.0716938 73.3273333,14.0353333 C73.0000707,14.5253545 72.6222179,14.979627 72.2,15.3906667 C71.7852615,15.8050998 71.3313655,16.1783974 70.8446667,16.5053333 C70.3666284,16.8261128 69.8573699,17.0977174 69.3246667,17.316 C68.7889948,17.534402 68.233235,17.6998572 67.6653333,17.81 C67.0736859,17.9336147 66.4710836,17.9972699 65.8666667,18 Z" id="Shape" fill="#8DA436"></path>
                <path d="M65.8666667,1.19133333 C64.8046343,1.18253807 63.752297,1.39386809 62.776,1.812 C60.8712316,2.62130663 59.35464,4.13789829 58.5453333,6.04266667 C58.1358868,7.02081359 57.933196,8.07308076 57.95,9.13333333 C57.9412047,10.1953657 58.1525348,11.247703 58.5706667,12.224 C58.9723957,13.1705827 59.5530099,14.0307518 60.2806667,14.7573333 C61.0097482,15.478748 61.8694956,16.0547787 62.814,16.4546667 C64.7859367,17.2872763 67.0107299,17.2872763 68.9826667,16.4546667 C70.8818157,15.647907 72.393907,14.1358157 73.2006667,12.2366667 C73.6205184,11.2564549 73.8318842,10.1996257 73.8213333,9.13333333 C73.8301286,8.07130092 73.6187986,7.01896371 73.2006667,6.04266667 C72.8007787,5.09816223 72.224748,4.23841491 71.5033333,3.50933333 C70.7767518,2.78167654 69.9165827,2.20106238 68.97,1.79933333 C67.9888586,1.38382557 66.9320649,1.17678028 65.8666667,1.19133333 Z" id="Shape" fill="#FFFFFF"></path>
                <path d="M65.8666667,15.1373333 C66.1444641,16.1062689 66.6044548,17.0133535 67.222,17.81 C68.1466667,18.5446667 70.376,17.5186667 70.3506667,16.4293333 C70.1284898,15.4253916 69.7570264,14.4604407 69.2486667,13.5666667 C68.3044994,14.4177536 67.126077,14.9650359 65.8666667,15.1373333 L65.8666667,15.1373333 Z" id="Shape" stroke="#8DA436" stroke-width="0.6" fill="#FFFFFF" fill-rule="nonzero"></path>
                <path d="M69.6666667,12.604 L69.8186667,12.604 L69.958,12.6673333 C70.0554097,12.7408538 70.119284,12.8503526 70.1353333,12.9713333 C70.1544419,13.0926945 70.1223329,13.2165435 70.0466667,13.3133333 C69.8087293,13.6253898 69.5368372,13.9100269 69.236,14.162 C68.9369225,14.4142702 68.6096303,14.6310482 68.2606667,14.808 C67.9028115,14.991584 67.5243698,15.1319051 67.1333333,15.226 C66.3422896,15.4153948 65.5177104,15.4153948 64.7266667,15.226 C64.3312847,15.1328682 63.9485369,14.9925274 63.5866667,14.808 C63.2263295,14.6455533 62.8862391,14.441499 62.5733333,14.2 C62.275036,13.9493171 62.0072026,13.6644784 61.7753333,13.3513333 C61.6996671,13.2545435 61.6675581,13.1306945 61.6866667,13.0093333 C61.702716,12.8883526 61.7665903,12.7788538 61.864,12.7053333 C61.9607899,12.6296671 62.0846389,12.5975581 62.206,12.6166667 C62.3279641,12.6297858 62.4385461,12.694292 62.51,12.794 C62.8983078,13.3261586 63.4058638,13.7599672 63.992,14.0606667 C64.2776617,14.2057092 64.5795596,14.3162634 64.8913333,14.39 C65.5333962,14.5356764 66.1999371,14.5356764 66.842,14.39 C67.1578787,14.3164194 67.4639886,14.2058797 67.754,14.0606667 C68.0447204,13.9167315 68.3169268,13.738096 68.5646667,13.5286667 C68.8146172,13.3184429 69.0398428,13.0804687 69.236,12.8193333 C69.2768058,12.7584277 69.3338471,12.710162 69.4006667,12.68 C69.4805666,12.6304821 69.5726667,12.6041678 69.6666667,12.604 L69.6666667,12.604 Z" id="Shape" fill="#8DA436"></path>
                <path d="M61.5473333,10.628 C63.4642222,9.42888889 64.4268889,8.66466667 64.4353333,8.33533333 C64.4437778,8.006 63.2911111,7.31355556 60.9773333,6.258" id="Shape" stroke="#8DA436" stroke-width="0.75" stroke-linecap="round"></path>
                <path d="M70.1986667,10.628 C68.2817778,9.42888889 67.3191111,8.66466667 67.3106667,8.33533333 C67.3022222,8.006 68.4548889,7.31777778 70.7686667,6.27066667" id="Shape" stroke="#8DA436" stroke-width="0.75" stroke-linecap="round"></path>
                <path d="M5.852,5.47266667 C6.07442016,5.40212197 6.30370779,5.35541523 6.536,5.33333333 C6.70769325,5.32869757 6.87302272,5.39844026 6.98952128,5.52464703 C7.10601983,5.6508538 7.16233447,5.82122556 7.144,5.992 C7.144,6.372 7.144,6.714 4.104,7.00533333 C3.55458993,9.57310165 2.86963148,12.1099848 2.052,14.6053333 C1.99114815,14.9282511 1.70926773,15.162265 1.38066667,15.1626667 C1.21724129,15.1766195 1.055111,15.123952 0.931084275,15.0166211 C0.807057546,14.9092903 0.731656697,14.7564021 0.722,14.5926667 C0.72856847,14.4168126 0.771707503,14.2442564 0.848666667,14.086 C1.69687664,11.8132025 2.3743129,9.48028143 2.87533333,7.10666667 C2.22933333,7.17 1.38066667,7.208 0.848666667,7.208 C0.316666667,7.208 0,6.99266667 0,6.524 C0,6.05533333 0.278666667,5.916 0.671333333,5.916 C1.47432428,5.93133186 2.27757635,5.905966 3.078,5.84 C3.078,5.54866667 3.344,4.25666667 3.382,3.99066667 C3.38129866,3.84368558 3.4429125,3.70329075 3.55156162,3.60429934 C3.66021073,3.50530792 3.80571858,3.45699188 3.952,3.47133333 C4.34466667,3.47133333 4.598,3.66133333 4.598,3.99066667 C4.5961078,4.18649941 4.57489388,4.38166744 4.53466667,4.57333333 C4.53466667,4.89 4.408,5.27 4.34466667,5.726 C4.85143967,5.66971267 5.35466939,5.58513625 5.852,5.47266667 L5.852,5.47266667 Z M6.58666667,11.9833333 C6.56886228,12.1152016 6.5303905,12.2434409 6.47266667,12.3633333 C6.39466537,12.5442019 6.34756699,12.7368771 6.33333333,12.9333333 C6.33333333,13.896 8.08133333,13.896 8.474,13.896 C8.86666667,13.896 9.196,13.896 9.614,13.896 C10.032,13.896 10.3993333,13.782 10.5893333,13.782 C10.7661656,13.7614611 10.9426852,13.8228883 11.0685652,13.9487682 C11.1944451,14.0746481 11.2558722,14.2511677 11.2353333,14.428 C11.2353333,14.9853333 10.868,15.1753333 8.79066667,15.1753333 C6.96666667,15.1753333 5.14266667,14.808 5.14266667,13.0853333 C5.14266667,12.9713333 5.14266667,11.502 5.928,11.502 C6.24025855,11.4631618 6.52881779,11.674032 6.58666667,11.9833333 Z M10.1333333,8.86733333 C9.82933333,8.86733333 9.32266667,8.804 8.86666667,8.804 C8.24299884,8.80633758 7.62045653,8.85715736 7.00466667,8.956 C6.76734152,9.01036731 6.52578879,9.04426945 6.28266667,9.05733333 C6.13324012,9.04793811 5.99427013,8.97744653 5.89842069,8.8624272 C5.80257125,8.74740787 5.75829544,8.59800448 5.776,8.44933333 C5.776,8.09466667 5.83933333,7.778 7.76466667,7.63866667 C8.16013166,7.59620664 8.55759555,7.57506495 8.95533333,7.57533333 C10.4626667,7.57533333 10.7033333,7.778 10.7033333,8.28466667 C10.7104015,8.43904475 10.6530529,8.58942715 10.5449841,8.69989747 C10.4369153,8.81036778 10.2878295,8.87100733 10.1333333,8.86733333 Z M10.3866667,5.16866667 C10.5032611,5.31478522 10.5777194,5.4899814 10.602,5.67533333 C10.5854255,5.93150756 10.3882813,6.13930826 10.1333333,6.16933333 C9.956,6.16933333 9.82933333,6.04266667 9.67733333,5.81466667 C9.52533333,5.58666667 9.22133333,5.13066667 8.99333333,4.80133333 C8.89630753,4.6911086 8.83453961,4.55433678 8.816,4.40866667 C8.81931556,4.28099442 8.87323561,4.15987386 8.96588842,4.07197248 C9.05854123,3.9840711 9.18233008,3.93659603 9.31,3.94 C9.47466667,3.94 9.614,3.94 10.3866667,5.16866667 Z M11.21,3.50933333 C11.5804702,3.91694659 11.8648191,4.39516973 12.046,4.91533333 C12.0033464,5.15537196 11.7957877,5.33099857 11.552,5.33333333 C11.4,5.33333333 11.2226667,5.33333333 11.0833333,5.06733333 C10.944,4.80133333 10.6146667,4.34533333 10.412,4.06666667 C10.2853518,3.94323627 10.2125224,3.77481814 10.2093333,3.598 C10.2158735,3.47363645 10.2716417,3.35698955 10.3643262,3.27381114 C10.4570108,3.19063273 10.5789894,3.14776317 10.7033333,3.15466667 C10.9224548,3.18608935 11.1120017,3.32351083 11.21,3.522 L11.21,3.50933333 Z" id="Shape" fill="#8DA436" fill-rule="nonzero"></path>
                <path d="M25.6626667,9.982 C25.6422651,12.3952912 23.9812151,14.4846623 21.6346667,15.0486667 C21.4622569,15.0562051 21.2947662,14.9901212 21.1739518,14.8668904 C21.0531373,14.7436597 20.9903827,14.5748934 21.0013333,14.4026667 C21.0019253,14.1889036 21.1399397,13.9997727 21.3433333,13.934 C23.1240946,13.4199653 24.3651855,11.8096242 24.4086667,9.95666667 C24.4551666,9.10327877 24.1417923,8.26947877 23.5447265,7.65796785 C22.9476607,7.04645694 22.1215888,6.71324344 21.2673333,6.73933333 C20.8722403,8.43779918 20.2003775,10.0596845 19.2786667,11.54 C19.469949,11.8763907 19.6858724,12.198159 19.9246667,12.5026667 C20.0708638,12.6524156 20.1565742,12.8509029 20.1653333,13.06 C20.1336505,13.396338 19.8569726,13.6567408 19.5193333,13.668 C19.342,13.668 19.1393333,13.668 18.4933333,12.604 C17.9056167,13.3673223 17.0499174,13.8789309 16.0993333,14.0353333 C14.9213333,14.0353333 14.288,12.7686667 14.288,11.3373333 C14.3236437,9.77017676 15.0235902,8.29200045 16.2133333,7.27133333 C15.987617,6.44060707 15.8266897,5.59362132 15.732,4.738 C15.732,4.38821966 16.015553,4.10466667 16.3653333,4.10466667 C16.7151137,4.10466667 16.9986667,4.38821966 16.9986667,4.738 C17.0746667,5.43466667 17.1633333,6.00466667 17.2773333,6.51133333 C18.1991749,5.99770774 19.216598,5.67868526 20.2666667,5.574 C20.33,5.16866667 20.3806667,4.75066667 20.4313333,4.42133333 C20.4394018,4.16523151 20.4733524,3.91060239 20.5326667,3.66133333 C20.6166978,3.44043846 20.8283286,3.29431247 21.0646667,3.294 C21.2464995,3.27134711 21.4290496,3.33019934 21.5634125,3.45479042 C21.6977754,3.5793815 21.7702181,3.75697707 21.7613333,3.94 C21.7613333,4.21866667 21.5586667,5.308 21.4953333,5.62466667 C22.6264198,5.64790952 23.7017089,6.12053318 24.4836526,6.9381278 C25.2655963,7.75572242 25.6898418,8.85100114 25.6626667,9.982 Z M15.3773333,11.2486667 C15.3773333,11.6033333 15.4406667,12.756 16.1246667,12.756 C16.8086667,12.756 17.4926667,11.996 17.8473333,11.4893333 C17.3222349,10.5087486 16.8978452,9.47748175 16.5806667,8.41133333 C15.8366395,9.17591282 15.4110148,10.1946953 15.39,11.2613333 L15.3773333,11.2486667 Z M17.5433333,7.63866667 C17.7984212,8.59445065 18.1551212,9.52017217 18.6073333,10.4 C19.2550511,9.24479708 19.749012,8.0098948 20.0766667,6.72666667 C19.1756315,6.84944228 18.3116017,7.16481316 17.5433333,7.65133333 L17.5433333,7.63866667 Z" id="Shape" fill="#8DA436" fill-rule="nonzero"></path>
                <path d="M28.7026667,4.57333333 C28.6258822,4.30453387 28.7271393,4.01654552 28.955252,3.85494835 C29.1833646,3.69335119 29.4886354,3.69335119 29.716748,3.85494835 C29.9448607,4.01654552 30.0461178,4.30453387 29.9693333,4.57333333 L29.9693333,12.642 C29.9693333,12.7433333 29.9693333,12.8066667 30.096,12.8066667 C31.4323781,12.4764473 32.6925101,11.8915397 33.8073333,11.084 C34.9794498,10.3060531 36.0295657,9.35838752 36.9233333,8.272 C37.2653333,7.86666667 37.4046667,7.65133333 37.7593333,7.65133333 C38.1460883,7.65041256 38.4673283,7.94949805 38.494,8.33533333 C38.494,8.67733333 38.1393333,9.09533333 37.7466667,9.526 C34.6306667,12.8193333 30.59,14.4406667 29.45,14.4406667 C29.2230661,14.454117 29.0020273,14.3652737 28.8475271,14.1985116 C28.6930269,14.0317495 28.6212908,13.8045817 28.652,13.5793333 L28.7026667,4.57333333 Z" id="Shape" fill="#8DA436" fill-rule="nonzero"></path>
                <path d="M45.372,9.13333333 C44.9597958,10.5519906 44.275779,11.8770042 43.358,13.0346667 C42.8766667,13.6553333 42.6866667,13.8833333 42.3066667,13.8833333 C41.9128118,13.8833939 41.5915764,13.5677943 41.5846667,13.174 C41.5846667,12.9586667 41.7113333,12.832 42.066,12.4266667 C42.9125575,11.4031658 43.5689237,10.2362924 44.004,8.98133333 C44.0613185,8.67569564 44.3400216,8.46256972 44.65,8.48733333 C45.0231401,8.47918583 45.3387649,8.76158695 45.372,9.13333333 Z M48.4373333,6.13133333 L52.744,6.13133333 C52.9186584,6.1053284 53.0953073,6.1636322 53.2201709,6.28849577 C53.3450345,6.41335934 53.4033383,6.59000824 53.3773333,6.76466667 C53.4033383,6.93932509 53.3450345,7.11597399 53.2201709,7.24083756 C53.0953073,7.36570113 52.9186584,7.42400493 52.744,7.398 L48.4373333,7.398 L48.4373333,14.2 C48.4373333,14.998 48.0953333,15.5553333 47.1706667,15.5553333 C46.8033333,15.5553333 44.726,15.3906667 44.726,14.5293333 C44.6966627,14.1767305 44.9564321,13.8661367 45.3086667,13.8326667 C45.5543906,13.8692751 45.7933932,13.9418295 46.018,14.048 C46.2945876,14.1314667 46.5789343,14.1866385 46.8666667,14.2126667 C47.044,14.2126667 47.0946667,14.1366667 47.0946667,13.8833333 L47.0946667,7.42333333 L42.6486667,7.42333333 C42.4760377,7.44491851 42.3032315,7.38465382 42.1814627,7.26039991 C42.0596938,7.13614601 42.0029321,6.96215772 42.028,6.79 C42.0029321,6.61784228 42.0596938,6.44385399 42.1814627,6.31960009 C42.3032315,6.19534618 42.4760377,6.13508149 42.6486667,6.15666667 L47.158,6.15666667 L47.158,4.30733333 C47.158,3.95755299 47.441553,3.674 47.7913333,3.674 C48.1411137,3.674 48.4246667,3.95755299 48.4246667,4.30733333 L48.4373333,6.13133333 Z M51.49,9.19666667 C52.3731272,10.4081889 53.0889058,11.7332316 53.618,13.136 C53.6112387,13.5179227 53.303256,13.8259054 52.9213333,13.8326667 C52.5286667,13.8326667 52.3513333,13.6553333 52.1866667,13.2753333 C51.6907765,12.1732298 51.0973007,11.1176907 50.4133333,10.1213333 C50.1473333,9.74133333 49.932,9.488 49.932,9.19666667 C49.9590838,8.81668929 50.2863463,8.52892404 50.6666667,8.55066667 C50.9453333,8.55066667 51.0973333,8.70266667 51.49,9.23466667 L51.49,9.19666667 Z M54.0233333,4.40866667 C54.0338267,5.33558455 53.2909179,6.09550653 52.364,6.10599994 C51.4370821,6.11649335 50.6771601,5.37358455 50.6666667,4.44666667 C50.659361,4.00108121 50.8357849,3.57213361 51.1544775,3.26062954 C51.4731701,2.94912547 51.9060305,2.78253209 52.3513333,2.8 C52.7890215,2.79298291 53.2106683,2.96463634 53.5190029,3.27536119 C53.8273376,3.58608605 53.99573,4.0090457 53.9853333,4.44666667 L54.0233333,4.40866667 Z M51.49,4.40866667 C51.4795066,4.88087013 51.8537965,5.27217326 52.326,5.28266667 C52.7982035,5.29316008 53.1895066,4.91887013 53.2,4.44666667 C53.2,3.98495662 52.8257101,3.61066667 52.364,3.61066667 C51.9022899,3.61066667 51.528,3.98495662 51.528,4.44666667 L51.49,4.40866667 Z" id="Shape" fill="#8DA436" fill-rule="nonzero"></path>
            </g>
        </g>
    </g>
</svg>